<svg xmlns="http://www.w3.org/2000/svg" width="374.347" height="520.464" viewBox="324.783 0 374.347 520.464">
    <path fill="#F4D06F" d="M577.087 131.2c-1.981 2.508-4.667 3.917-7.47 3.917h-28.749v148.142h12.174v18.245h-12.174v218.961H407.159v-18.247h11.972V301.503h-12.174v-18.245h12.174V135.115h-28.75c-2.801 0-5.489-1.409-7.469-3.917-4.125-5.223-4.125-13.689 0-18.913l82.151-104.02c8.249-10.445 21.624-10.445 29.874 0l82.15 104.02c4.124 5.224 4.124 13.692 0 18.915z"/>
    <path fill="#34515E" d="M540.869 207.229H419.131v-24.33h121.738v24.33zm0 194.631H419.131v24.329h121.738V401.86z"/>
    <path fill="#1C2833" d="M697.723 59.473c-.901 1.141-2.123 1.781-3.396 1.781h-31.628v72.987c0 31.86-25.941 57.781-57.827 57.781H388.696c-25.174 0-45.652 20.463-45.652 45.617 0 25.154 20.479 45.617 45.652 45.617h30.435v18.246h-30.435c-35.242 0-63.913-28.648-63.913-63.863s28.67-63.863 63.913-63.863h216.176c21.816 0 39.565-17.735 39.565-39.535V61.254h-31.629c-1.274 0-2.496-.64-3.396-1.781-1.875-2.375-1.875-6.226 0-8.602l37.363-47.309c3.751-4.75 9.834-4.75 13.586 0l37.362 47.309c1.876 2.376 1.876 6.227 0 8.602zM583.479 283.258H540.87v18.245h42.609c25.174 0 45.652 20.463 45.652 45.617s-20.479 45.617-45.652 45.617H388.696c-35.242 0-63.913 28.648-63.913 63.863 0 35.214 28.67 63.862 63.913 63.862h30.435v-18.246h-30.435c-25.174 0-45.652-20.463-45.652-45.616 0-25.154 20.479-45.617 45.652-45.617h194.783c35.242 0 63.913-28.648 63.913-63.863-.001-35.214-28.671-63.862-63.913-63.862z"/>
</svg>
