<svg xmlns="http://www.w3.org/2000/svg" viewBox="0 0 32.771 32.771">
    <path fill="#9DD9D2" d="M21.59 23.694l-10.413-.003a.5.5 0 0 1-.497-.441c-.121-1.022-.478-2.465-1.499-3.526a11.154 11.154 0 0 1-3.975-8.545C5.207 5.015 10.222 0 16.385 0s11.178 5.015 11.178 11.179c0 3.321-1.465 6.449-4.019 8.581-.98 1.026-1.337 2.47-1.458 3.493a.497.497 0 0 1-.496.441zm-9.979-1.003l9.545.003c.187-1.127.64-2.552 1.708-3.664 2.366-1.979 3.7-4.828 3.7-7.852C26.563 5.566 21.998 1 16.385 1S6.207 5.566 6.207 11.179c0 3.021 1.333 5.869 3.659 7.812.03.025.057.054.08.085 1.037 1.104 1.48 2.504 1.665 3.615z"/>
    <path fill="#34515e" d="M21.59 26.718H11.177a.5.5 0 0 1 0-1H21.59a.5.5 0 0 1 0 1z"/>
    <path fill="#34515e" d="M21.59 29.744H11.177a.5.5 0 0 1 0-1H21.59a.5.5 0 0 1 0 1z"/>
    <path fill="#34515e" d="M18.564 32.771h-4.36a.5.5 0 0 1 0-1h4.36a.5.5 0 0 1 0 1z"/>
</svg>
