<svg xmlns="http://www.w3.org/2000/svg" viewBox="0 0 511.998 511.998">
    <path d="M503.662 56.081v316.341c0 17.908-14.509 32.428-32.417 32.428H40.755c-17.908 0-32.417-14.52-32.417-32.428V56.081c0-17.908 14.509-32.428 32.417-32.428h430.49c17.908 0 32.417 14.52 32.417 32.428z" fill="#9DD9D2"/>
    <path d="M503.662 56.081v316.341c0 17.908-14.509 32.428-32.417 32.428H183.344l23.752-57.924L339.654 23.653h131.591c17.908 0 32.417 14.52 32.417 32.428z" fill="#EFF2F3"/>
    <path d="M503.662 56.081v290.845H8.338V56.081c0-17.908 14.509-32.428 32.417-32.428h430.49c17.908 0 32.417 14.52 32.417 32.428z" fill="#fff"/>
    <path d="M503.662 56.081v290.845H207.096L339.654 23.653h131.591c17.908 0 32.417 14.52 32.417 32.428z" fill="#fff"/>
    <path d="M343.453 469.452H168.547l12.487-29.218 15.131-35.384h119.67l15.131 35.384z"/>
    <path d="M330.966 440.234H181.034l15.131-35.384h119.67z"/>
    <path d="M454.542 237.484v232.409c0 11.598-9.399 20.997-20.997 20.997H312.23a20.1 20.1 0 0 1-2.022-.1c-10.654-1.011-18.975-9.987-18.975-20.897V237.484c0-11.598 9.399-20.997 20.997-20.997h121.315c11.598.001 20.997 9.399 20.997 20.997z" fill="#9DD9D2"/>
    <path d="M454.542 237.484v232.409c0 11.598-9.399 20.997-20.997 20.997H312.23a20.1 20.1 0 0 1-2.022-.1L422.68 216.488h10.865c11.598 0 20.997 9.398 20.997 20.996z" fill="#EFF2F3"/>
    <path d="M454.542 237.484v202.303H291.234V237.485c0-11.598 9.399-20.997 20.997-20.997h121.315c11.597 0 20.996 9.398 20.996 20.996z" fill="#fff"/>
    <path d="M454.542 237.484v202.303H331.116l91.564-223.299h10.865c11.598 0 20.997 9.398 20.997 20.996z" fill="#fff"/>
    <path d="M471.24 14.053H40.749C18.281 14.053 0 32.332 0 54.802v59.224a8.332 8.332 0 0 0 16.664 0V54.802c0-13.281 10.805-24.085 24.085-24.085h430.49c13.287 0 24.096 10.805 24.096 24.085v284.412h-32.462v-103.01c0-16.17-13.155-29.324-29.324-29.324H312.226c-16.17 0-29.324 13.155-29.324 29.324V395.24H40.749c-13.28 0-24.085-10.805-24.085-24.085V355.88H263.46a8.332 8.332 0 0 0 0-16.664H16.664V141.8A8.332 8.332 0 0 0 0 141.8v229.354c0 22.47 18.281 40.749 40.749 40.749h142.787l-20.495 47.948h-40.027a8.332 8.332 0 0 0 0 16.664h139.493a8.332 8.332 0 0 0 0-16.664h-81.344l14.241-33.317h87.497v42.086c0 16.17 13.155 29.324 29.324 29.324h121.323c16.17 0 29.324-13.155 29.324-29.324V355.879h32.462v15.275a24.061 24.061 0 0 1-14.72 22.196 8.331 8.331 0 0 0-4.428 10.919 8.332 8.332 0 0 0 10.92 4.429 40.693 40.693 0 0 0 24.892-37.543V54.802c.002-22.47-18.283-40.749-40.758-40.749zM299.566 236.204c0-6.981 5.679-12.66 12.66-12.66h121.323c6.981 0 12.66 5.679 12.66 12.66v193.975H299.564V236.204h.002zm133.983 245.078H312.226c-6.981 0-12.66-5.679-12.66-12.66v-21.779H446.21v21.779c0 6.98-5.679 12.66-12.661 12.66z"/>
    <path d="M262.924 368.954c-3.987-6.049-13.707-4.123-15.098 3-.672 3.439.933 7.043 3.962 8.811 3.025 1.765 6.959 1.424 9.621-.855 3.18-2.722 3.811-7.469 1.515-10.956zm117.66 91.92c-1.324-3.138-4.479-5.226-7.901-5.138-3.412.087-6.483 2.309-7.633 5.519-1.173 3.277-.134 7.034 2.553 9.246 2.798 2.304 6.888 2.494 9.904.494 3.292-2.185 4.536-6.478 3.077-10.121zm-30.471-210.668h45.549a8.332 8.332 0 0 0 0-16.664h-45.549a8.332 8.332 0 0 0 0 16.664z"/>
</svg>
