<svg xmlns="http://www.w3.org/2000/svg" viewBox="0 0 504.123 504.123">
    <path d="M252.058 498.527a38.27 38.27 0 0 1-34.028-20.779L4.226 61.318a38.253 38.253 0 0 1 1.371-37.4 38.275 38.275 0 0 1 32.65-18.314h427.63c13.32 0 25.695 6.94 32.65 18.314a38.271 38.271 0 0 1 1.371 37.408L286.07 477.755a38.238 38.238 0 0 1-34.012 20.772zM100.876 82.089l151.182 294.463L403.24 82.089H100.876z" fill="#cc092e"/>
    <path d="M331.993 388.321L499.889 61.318a38.27 38.27 0 0 0-1.371-37.408 38.275 38.275 0 0 0-32.65-18.314h-323.41l37.88 76.485h222.909L289.78 303.084l42.213 85.237z" fill="#a50231"/>
</svg>
