<svg xmlns="http://www.w3.org/2000/svg" xmlns:xlink="http://www.w3.org/1999/xlink"><symbol viewBox="324.783 0 374.347 520.464" id="svg--growth"><path fill="#F4D06F" d="M577.087 131.2c-1.981 2.508-4.667 3.917-7.47 3.917h-28.749v148.142h12.174v18.245h-12.174v218.961H407.159v-18.247h11.972V301.503h-12.174v-18.245h12.174V135.115h-28.75c-2.801 0-5.489-1.409-7.469-3.917-4.125-5.223-4.125-13.689 0-18.913l82.151-104.02c8.249-10.445 21.624-10.445 29.874 0l82.15 104.02c4.124 5.224 4.124 13.692 0 18.915z"/><path fill="#34515E" d="M540.869 207.229H419.131v-24.33h121.738v24.33zm0 194.631H419.131v24.329h121.738V401.86z"/><path fill="#1C2833" d="M697.723 59.473c-.901 1.141-2.123 1.781-3.396 1.781h-31.628v72.987c0 31.86-25.941 57.781-57.827 57.781H388.696c-25.174 0-45.652 20.463-45.652 45.617 0 25.154 20.479 45.617 45.652 45.617h30.435v18.246h-30.435c-35.242 0-63.913-28.648-63.913-63.863s28.67-63.863 63.913-63.863h216.176c21.816 0 39.565-17.735 39.565-39.535V61.254h-31.629c-1.274 0-2.496-.64-3.396-1.781-1.875-2.375-1.875-6.226 0-8.602l37.363-47.309c3.751-4.75 9.834-4.75 13.586 0l37.362 47.309c1.876 2.376 1.876 6.227 0 8.602zM583.479 283.258H540.87v18.245h42.609c25.174 0 45.652 20.463 45.652 45.617s-20.479 45.617-45.652 45.617H388.696c-35.242 0-63.913 28.648-63.913 63.863 0 35.214 28.67 63.862 63.913 63.862h30.435v-18.246h-30.435c-25.174 0-45.652-20.463-45.652-45.616 0-25.154 20.479-45.617 45.652-45.617h194.783c35.242 0 63.913-28.648 63.913-63.863-.001-35.214-28.671-63.862-63.913-63.862z"/></symbol><symbol viewBox="0 0 512 512" id="svg--hexagon"><path d="M485.291 129.408l-224-128a10.645 10.645 0 0 0-10.581 0l-224 128a10.665 10.665 0 0 0-5.376 9.259v234.667c0 3.819 2.048 7.36 5.376 9.259l224 128a10.622 10.622 0 0 0 5.291 1.408c1.835 0 3.648-.469 5.291-1.408l224-128a10.665 10.665 0 0 0 5.376-9.259V138.667a10.668 10.668 0 0 0-5.377-9.259zm-15.958 237.739L256 489.045 42.667 367.147V144.853L256 22.955l213.333 121.899v222.293z" fill="var(--primary-color,#1c2833)"/></symbol><symbol viewBox="0 0 512 512" id="svg--hexagon-full"><path d="M485.291 129.408l-224-128a10.645 10.645 0 0 0-10.581 0l-224 128a10.665 10.665 0 0 0-5.376 9.259v234.667c0 3.819 2.048 7.36 5.376 9.259l224 128c1.643.939 3.456 1.408 5.291 1.408s3.648-.469 5.291-1.408l224-128a10.665 10.665 0 0 0 5.376-9.259V138.667a10.668 10.668 0 0 0-5.377-9.259z"/></symbol><symbol viewBox="0 0 551.034 551.034" id="svg--instagram"><path fill="var(--primary-color,url(/#a))" d="M386.878 0H164.156C73.64 0 0 73.64 0 164.156v222.722c0 90.516 73.64 164.156 164.156 164.156h222.722c90.516 0 164.156-73.64 164.156-164.156V164.156C551.033 73.64 477.393 0 386.878 0zM495.6 386.878c0 60.045-48.677 108.722-108.722 108.722H164.156c-60.045 0-108.722-48.677-108.722-108.722V164.156c0-60.046 48.677-108.722 108.722-108.722h222.722c60.045 0 108.722 48.676 108.722 108.722v222.722z"/><path fill="var(--primary-color,url(/#a))" d="M275.517 133C196.933 133 133 196.933 133 275.516s63.933 142.517 142.517 142.517S418.034 354.1 418.034 275.516 354.101 133 275.517 133zm0 229.6c-48.095 0-87.083-38.988-87.083-87.083s38.989-87.083 87.083-87.083c48.095 0 87.083 38.988 87.083 87.083 0 48.094-38.989 87.083-87.083 87.083z"/><circle fill="var(--primary-color,url(/#a))" cx="418.306" cy="134.072" r="34.149"/></symbol><symbol viewBox="0 0 32.771 32.771" id="svg--light-bulb"><path fill="#9DD9D2" d="M21.59 23.694l-10.413-.003a.5.5 0 0 1-.497-.441c-.121-1.022-.478-2.465-1.499-3.526a11.154 11.154 0 0 1-3.975-8.545C5.207 5.015 10.222 0 16.385 0s11.178 5.015 11.178 11.179c0 3.321-1.465 6.449-4.019 8.581-.98 1.026-1.337 2.47-1.458 3.493a.497.497 0 0 1-.496.441zm-9.979-1.003l9.545.003c.187-1.127.64-2.552 1.708-3.664 2.366-1.979 3.7-4.828 3.7-7.852C26.563 5.566 21.998 1 16.385 1S6.207 5.566 6.207 11.179c0 3.021 1.333 5.869 3.659 7.812.03.025.057.054.08.085 1.037 1.104 1.48 2.504 1.665 3.615z"/><path fill="#34515e" d="M21.59 26.718H11.177a.5.5 0 0 1 0-1H21.59a.5.5 0 0 1 0 1zm0 3.026H11.177a.5.5 0 0 1 0-1H21.59a.5.5 0 0 1 0 1zm-3.026 3.027h-4.36a.5.5 0 0 1 0-1h4.36a.5.5 0 0 1 0 1z"/></symbol><symbol viewBox="0 0 382 382" id="svg--linkedin"><path fill="var(--primary-color,#0077b7)" d="M347.445 0H34.555C15.471 0 0 15.471 0 34.555v312.889C0 366.529 15.471 382 34.555 382h312.889C366.529 382 382 366.529 382 347.444V34.555C382 15.471 366.529 0 347.445 0zM118.207 329.844c0 5.554-4.502 10.056-10.056 10.056H65.345c-5.554 0-10.056-4.502-10.056-10.056V150.403c0-5.554 4.502-10.056 10.056-10.056h42.806c5.554 0 10.056 4.502 10.056 10.056v179.441zM86.748 123.432c-22.459 0-40.666-18.207-40.666-40.666S64.289 42.1 86.748 42.1s40.666 18.207 40.666 40.666-18.206 40.666-40.666 40.666zM341.91 330.654a9.247 9.247 0 0 1-9.246 9.246H286.73a9.247 9.247 0 0 1-9.246-9.246v-84.168c0-12.556 3.683-55.021-32.813-55.021-28.309 0-34.051 29.066-35.204 42.11v97.079a9.246 9.246 0 0 1-9.246 9.246h-44.426a9.247 9.247 0 0 1-9.246-9.246V149.593a9.247 9.247 0 0 1 9.246-9.246h44.426a9.247 9.247 0 0 1 9.246 9.246v15.655c10.497-15.753 26.097-27.912 59.312-27.912 73.552 0 73.131 68.716 73.131 106.472v86.846z"/></symbol><symbol viewBox="0 0 384.97 384.97" id="svg--menu"><path d="M12.03 120.303h360.909c6.641 0 12.03-5.39 12.03-12.03 0-6.641-5.39-12.03-12.03-12.03H12.03c-6.641 0-12.03 5.39-12.03 12.03s5.39 12.03 12.03 12.03zm360.909 60.152H12.03c-6.641 0-12.03 5.39-12.03 12.03s5.39 12.03 12.03 12.03h360.909c6.641 0 12.03-5.39 12.03-12.03s-5.389-12.03-12.03-12.03zm0 84.212H132.333c-6.641 0-12.03 5.39-12.03 12.03 0 6.641 5.39 12.03 12.03 12.03h240.606c6.641 0 12.03-5.39 12.03-12.03.001-6.641-5.389-12.03-12.03-12.03z"/></symbol><symbol viewBox="0 0 511.998 511.998" id="svg--responsive"><path d="M503.662 56.081v316.341c0 17.908-14.509 32.428-32.417 32.428H40.755c-17.908 0-32.417-14.52-32.417-32.428V56.081c0-17.908 14.509-32.428 32.417-32.428h430.49c17.908 0 32.417 14.52 32.417 32.428z" fill="#9DD9D2"/><path d="M503.662 56.081v316.341c0 17.908-14.509 32.428-32.417 32.428H183.344l23.752-57.924L339.654 23.653h131.591c17.908 0 32.417 14.52 32.417 32.428z" fill="#EFF2F3"/><path d="M503.662 56.081v290.845H8.338V56.081c0-17.908 14.509-32.428 32.417-32.428h430.49c17.908 0 32.417 14.52 32.417 32.428z" fill="#fff"/><path d="M503.662 56.081v290.845H207.096L339.654 23.653h131.591c17.908 0 32.417 14.52 32.417 32.428z" fill="#fff"/><path d="M343.453 469.452H168.547l12.487-29.218 15.131-35.384h119.67l15.131 35.384z"/><path d="M330.966 440.234H181.034l15.131-35.384h119.67z"/><path d="M454.542 237.484v232.409c0 11.598-9.399 20.997-20.997 20.997H312.23a20.1 20.1 0 0 1-2.022-.1c-10.654-1.011-18.975-9.987-18.975-20.897V237.484c0-11.598 9.399-20.997 20.997-20.997h121.315c11.598.001 20.997 9.399 20.997 20.997z" fill="#9DD9D2"/><path d="M454.542 237.484v232.409c0 11.598-9.399 20.997-20.997 20.997H312.23a20.1 20.1 0 0 1-2.022-.1L422.68 216.488h10.865c11.598 0 20.997 9.398 20.997 20.996z" fill="#EFF2F3"/><path d="M454.542 237.484v202.303H291.234V237.485c0-11.598 9.399-20.997 20.997-20.997h121.315c11.597 0 20.996 9.398 20.996 20.996z" fill="#fff"/><path d="M454.542 237.484v202.303H331.116l91.564-223.299h10.865c11.598 0 20.997 9.398 20.997 20.996z" fill="#fff"/><path d="M471.24 14.053H40.749C18.281 14.053 0 32.332 0 54.802v59.224a8.332 8.332 0 0 0 16.664 0V54.802c0-13.281 10.805-24.085 24.085-24.085h430.49c13.287 0 24.096 10.805 24.096 24.085v284.412h-32.462v-103.01c0-16.17-13.155-29.324-29.324-29.324H312.226c-16.17 0-29.324 13.155-29.324 29.324V395.24H40.749c-13.28 0-24.085-10.805-24.085-24.085V355.88H263.46a8.332 8.332 0 0 0 0-16.664H16.664V141.8A8.332 8.332 0 0 0 0 141.8v229.354c0 22.47 18.281 40.749 40.749 40.749h142.787l-20.495 47.948h-40.027a8.332 8.332 0 0 0 0 16.664h139.493a8.332 8.332 0 0 0 0-16.664h-81.344l14.241-33.317h87.497v42.086c0 16.17 13.155 29.324 29.324 29.324h121.323c16.17 0 29.324-13.155 29.324-29.324V355.879h32.462v15.275a24.061 24.061 0 0 1-14.72 22.196 8.331 8.331 0 0 0-4.428 10.919 8.332 8.332 0 0 0 10.92 4.429 40.693 40.693 0 0 0 24.892-37.543V54.802c.002-22.47-18.283-40.749-40.758-40.749zM299.566 236.204c0-6.981 5.679-12.66 12.66-12.66h121.323c6.981 0 12.66 5.679 12.66 12.66v193.975H299.564V236.204h.002zm133.983 245.078H312.226c-6.981 0-12.66-5.679-12.66-12.66v-21.779H446.21v21.779c0 6.98-5.679 12.66-12.661 12.66z"/><path d="M262.924 368.954c-3.987-6.049-13.707-4.123-15.098 3-.672 3.439.933 7.043 3.962 8.811 3.025 1.765 6.959 1.424 9.621-.855 3.18-2.722 3.811-7.469 1.515-10.956zm117.66 91.92c-1.324-3.138-4.479-5.226-7.901-5.138-3.412.087-6.483 2.309-7.633 5.519-1.173 3.277-.134 7.034 2.553 9.246 2.798 2.304 6.888 2.494 9.904.494 3.292-2.185 4.536-6.478 3.077-10.121zm-30.471-210.668h45.549a8.332 8.332 0 0 0 0-16.664h-45.549a8.332 8.332 0 0 0 0 16.664z"/></symbol><symbol viewBox="0 0 950.002 950.002" id="svg--speedometer"><path fill="#FF715B" d="M949.869 741.307l-.217-6.221c-.075-2.082-.152-4.17-.229-6.268l-.06-1.57-.03-.787-.008-.197-.02-1.76-.006-.082-.025-.326-.201-2.607-.813-10.467-.207-2.645-.312-3.43-.646-6.836-.669-6.799-.343-3.381-.414-3.119c-1.139-8.242-2.156-16.342-3.608-24.129-.686-3.896-1.319-7.727-2.031-11.461l-2.277-10.914c-1.402-7.098-3.163-13.727-4.647-19.855l-1.115-4.492-1.185-4.264c-.782-2.766-1.523-5.391-2.221-7.855-.71-2.461-1.336-4.771-1.99-6.889l-1.851-5.803-2.079-6.455a4.926 4.926 0 0 0-6.043-3.223l-160.613 45.771a4.924 4.924 0 0 0-3.498 5.637l.595 3.201.759 3.994c.261 1.457.466 3.053.729 4.74l.821 5.383c.141.947.308 1.912.439 2.91l.35 3.07c.447 4.184 1.115 8.67 1.413 13.48l.609 7.361c.156 2.518.234 5.098.368 7.709.348 5.213.282 10.641.382 16.115l.023 2.039-.072 1.805-.124 3.617-.098 3.619-.038 1.807-.11 2.602c-.148 3.502-.299 7.002-.448 10.49l-.111 2.613-.015.326-.003.08c.002.393-.03-3.111-.02-1.598l-.013.129-.048.516-.095 1.031-.371 4.102-.355 4.062c-.16 1.342-.319 2.678-.479 4.004-.341 2.65-.551 5.275-.973 7.832l-1.09 7.535-1.246 7.166c-.366 2.33-.856 4.574-1.292 6.746-.456 2.168-.819 4.273-1.292 6.271a10470.159 10470.159 0 0 1-1.93 8.355l-.588 2.125-.327 1.221H944.3c2.633 0 4.826-2.066 4.926-4.697l.002-.047.503-11.254.224-11.742c.112-3.982-.009-8.029-.02-12.121-.023-2.045-.044-4.102-.066-6.17zm-51.078-206.178a4.927 4.927 0 0 0 2.622-6.68l-1.886-3.984a3091.82 3091.82 0 0 1-2.231-4.697l-3.396-6.916c-1.222-2.459-2.521-5.076-3.893-7.834-.695-1.434-1.378-2.617-2.093-3.963l-2.186-4.037c-1.497-2.744-3.028-5.613-4.671-8.551a30131.59 30131.59 0 0 1-5.254-9.002l-2.749-4.684-2.947-4.723-6.112-9.706c-4.377-6.45-8.734-13.196-13.597-19.761-1.194-1.653-2.395-3.312-3.598-4.976l-1.81-2.494-1.884-2.453-7.58-9.812c-2.575-3.237-5.239-6.406-7.85-9.587-1.32-1.58-2.599-3.183-3.946-4.727l-4.04-4.603c-1.343-1.523-2.68-3.043-4.011-4.554a134.141 134.141 0 0 0-4.033-4.45l-8.06-8.585c-2.65-2.81-5.394-5.451-8.005-8.091-2.63-2.626-5.186-5.205-7.796-7.6l-7.521-7.04c-2.418-2.279-4.887-4.349-7.187-6.399l-6.656-5.819-6.157-5.073-5.416-4.442c-1.676-1.367-3.279-2.552-4.692-3.657a32101.34 32101.34 0 0 1-5.177-3.973 4.925 4.925 0 0 0-6.798.776l-86.204 104.346a4.925 4.925 0 0 0 .327 6.64c.721.712 1.553 1.536 2.489 2.463.897.901 1.925 1.855 2.979 2.969l3.409 3.604 3.88 4.078 4.147 4.67c1.427 1.642 2.987 3.272 4.471 5.09l4.636 5.573c1.621 1.878 3.168 3.917 4.77 5.977 1.585 2.074 3.279 4.119 4.871 6.312l4.851 6.658a71.25 71.25 0 0 1 2.41 3.434l2.381 3.506c.798 1.168 1.601 2.342 2.404 3.52.802 1.178 1.537 2.41 2.312 3.615 1.522 2.432 3.1 4.828 4.596 7.277l4.369 7.41 1.09 1.838 1.021 1.877 2.038 3.727c2.795 4.889 5.154 9.93 7.623 14.666l3.329 7.152 1.614 3.453 1.459 3.43c.965 2.246 1.903 4.434 2.812 6.547l2.427 6.199 1.142 2.912c.352.926.788 1.928 1.022 2.699l1.574 4.6 1.413 4.016 1.574 4.697 1.395 4.184a4.927 4.927 0 0 0 6.515 3.008l149.464-60.05zM459.808 348.748l4.324.59 5.063.882 5.747.987c1.758.292 3.579.716 5.472 1.112l54.404-111.282-7.993-1.248c-1.796-.267-3.564-.574-5.325-.794l-5.218-.632-9.989-1.187-9.358-.802c-3-.23-5.861-.533-8.6-.663l-7.765-.382-6.818-.322-5.792-.093-6.222-.075a4.925 4.925 0 0 0-4.979 4.695l-4.961 103.577a4.926 4.926 0 0 0 4.25 5.121l3.76.516zm146.219 57.033c1.462 1.063 2.848 2.071 4.15 3.02l3.654 2.617c.489.336 1.296.948 1.955 1.438l1.939 1.448 3.533 2.636a4.925 4.925 0 0 0 7.065-1.25l71.03-108.196a4.923 4.923 0 0 0-1.661-6.98l-3.823-2.193-2.101-1.205-2.511-1.421-6.542-3.604c-2.336-1.273-4.823-2.627-7.443-4.056a39845.12 39845.12 0 0 1-7.86-3.939c-2.75-1.342-5.556-2.835-8.565-4.19l-9.273-4.25c-3.161-1.492-6.497-2.847-9.883-4.269-3.4-1.392-6.821-2.914-10.394-4.257l-2.736-1.036-30.642 132.998c1.694 1.064 3.29 2.192 4.862 3.21l5.246 3.479zm-241.593-57.575c1.372-.181 2.719-.405 4.064-.547l3.984-.405 7.619-.791 7.142-.479 3.353-.229c1.09-.073 2.182-.166 3.118-.167l5.479-.143 4.8-.152 5.025-.033 4.408-.024a4.925 4.925 0 0 0 4.886-5.254l-6.394-97.57a4.925 4.925 0 0 0-5.53-4.571l-4.373.552-5.089.648-7.083 1.05-8.034 1.224c-1.448.204-2.781.475-4.18.739l-4.279.817-9.076 1.754-9.642 2.196-5.019 1.154c-1.692.396-3.389.88-5.11 1.325l-10.51 2.8-10.757 3.243c-1.812.561-3.643 1.09-5.463 1.689l-5.467 1.865-5.5 1.885c-1.84.626-3.683 1.255-5.501 1.972l-10.963 4.185c-3.643 1.426-7.226 3.006-10.817 4.501-1.79.763-3.585 1.499-5.354 2.282l-5.253 2.425-5.201 2.409c-1.725.798-3.443 1.584-5.113 2.451l-9.919 5.008c-3.257 1.633-6.361 3.435-9.444 5.094-3.069 1.69-6.087 3.302-8.934 5.039l-8.342 4.949c-2.702 1.576-5.208 3.278-7.664 4.816l-6.999 4.487-6.178 4.24-5.418 3.731c-1.672 1.153-3.151 2.296-4.514 3.284l-4.7 3.47a4.923 4.923 0 0 0-1.141 6.735l40.515 59.566a4.922 4.922 0 0 0 6.494 1.524l3.632-2.049c1.209-.669 2.517-1.459 3.994-2.228 1.476-.77 3.072-1.6 4.777-2.488l5.417-2.832 6.107-2.928c2.138-.996 4.307-2.137 6.646-3.132l7.189-3.155c2.443-1.125 5.031-2.108 7.649-3.158 2.632-1.02 5.268-2.174 8.029-3.149l8.374-3.018c1.403-.533 2.847-.984 4.294-1.446l4.353-1.401 4.378-1.416c1.472-.447 2.965-.847 4.448-1.275 2.979-.824 5.938-1.738 8.938-2.504l8.994-2.225c1.484-.395 2.99-.704 4.489-1.013l4.475-.942 4.429-.94c1.473-.294 2.954-.521 4.415-.784l8.648-1.501 8.399-1.16zM88.175 425.22l-3.199 4.526-3.216 4.559c-1.071 1.527-2.073 3.111-3.115 4.669-2.054 3.137-4.156 6.25-6.168 9.422l-5.887 9.585-1.46 2.386-1.386 2.425-2.754 4.822c-3.74 6.353-6.989 12.847-10.291 19.015l-4.529 9.266-2.178 4.488-1.999 4.441-3.817 8.504-3.329 8.045c-1.046 2.586-2.103 5.033-3.004 7.408l-2.527 6.752-2.212 5.93-1.734 5.084-1.741 5.168a4.924 4.924 0 0 0 2.91 6.172l37.71 14.457c2.4.92 5.103-.154 6.212-2.473l1.962-4.102 2.073-4.311 2.596-5.004c.924-1.781 1.906-3.68 2.942-5.68 1.044-1.994 2.246-4.039 3.439-6.199l3.77-6.705 4.252-7.043 2.21-3.668c.785-1.215 1.58-2.443 2.383-3.688l4.916-7.59c3.546-5.02 7.014-10.307 10.933-15.406l2.882-3.879 1.445-1.947 1.514-1.904 6.064-7.633c2.061-2.516 4.2-4.967 6.279-7.439 1.054-1.227 2.066-2.479 3.145-3.672l3.228-3.562 3.195-3.531a87.627 87.627 0 0 1 3.211-3.444l6.411-6.64c2.101-2.177 4.294-4.197 6.364-6.239 2.086-2.027 4.104-4.027 6.182-5.86l5.956-5.42c1.908-1.761 3.874-3.333 5.69-4.911l5.246-4.468c1.636-1.295 3.188-2.523 4.646-3.679a8833.53 8833.53 0 0 0 4.062-3.235c.576-.476 1.356-1.046 2.015-1.547l1.933-1.458 3.518-2.655a4.925 4.925 0 0 0 .774-7.133l-42.935-50.299a4.925 4.925 0 0 0-7.166-.355l-3.174 3.058-1.744 1.679c-.621.603-1.212 1.152-1.982 1.939l-4.764 4.808-5.392 5.47-5.557 6.019c-1.912 2.113-3.974 4.242-5.969 6.576l-6.202 7.19c-2.155 2.438-4.24 5.057-6.385 7.714-2.129 2.671-4.373 5.336-6.514 8.16-2.135 2.824-4.305 5.695-6.501 8.603a110.88 110.88 0 0 0-3.237 4.439zm-78.02 176.352l-.878 4.32a37820.5 37820.5 0 0 1-1.011 4.977c-.361 1.852-.714 4.039-1.108 6.271l-1.234 7.18c-.21 1.26-.45 2.562-.649 3.875l-.542 4c-.704 5.453-1.631 11.32-2.165 17.588l-.953 9.609c-.268 3.283-.447 6.645-.678 10.053-.54 6.811-.639 13.875-.864 21.021L0 693.152l.013 2.697a220415.294 220415.294 0 0 1 .062 10.842l.017 2.717.104 2.719.441 10.84.111 2.695.034.873.048.65.096 1.299.382 5.18.379 5.139.516 5.309.516 5.24.258 2.588.32 2.529 1.255 9.871 1.449 9.412c.44 3.057 1.007 6.014 1.528 8.873l.128.682a4.927 4.927 0 0 0 4.846 4.031h13.291a4.931 4.931 0 0 0 4.923-5.221c-.045-.756-.091-1.52-.142-2.291-.166-2.756-.366-5.598-.43-8.531l-.295-9.01a40192.024 40192.024 0 0 1-.072-11.804l.053-2.385.106-4.812.107-4.865.24-5.146.241-5.188.061-1.303.03-.652.004-.082c0-.207.004.191.006.123l.012-.158.025-.314.202-2.523.807-10.117.206-2.527.291-2.521.58-5.027.575-5.002.285-2.488.369-2.471c1.012-6.57 1.872-13.033 3.132-19.221.591-3.1 1.12-6.15 1.727-9.119l1.936-8.666c1.164-5.641 2.673-10.885 3.901-15.746l.924-3.562c.318-1.143.661-2.225.977-3.297l1.81-6.059c.581-1.918 1.058-3.633 1.614-5.354l1.601-4.82 1.389-4.186a4.925 4.925 0 0 0-3.412-6.311l-33.319-8.885a4.925 4.925 0 0 0-6.103 3.775z"/><path fill="#1c2833" d="M387.317 774.27c10.84 5.299 22.323 7.811 33.628 7.811 28.378 0 55.65-15.811 68.953-43.023 2.562-5.238 4.545-11.021 5.835-16.467l77.577-336.717 29.544-128.233 18.303-79.437c2.13-9.245-5.224-15.543-12.602-15.543-4.319 0-8.647 2.159-11.087 7.148l-37.245 76.183-54.944 112.386-153.175 313.311c-18.603 38.051-2.837 83.979 35.213 102.581zm36.472-108.434c20.759 0 37.588 16.828 37.588 37.588 0 20.758-16.829 37.588-37.588 37.588s-37.588-16.83-37.588-37.588c0-20.762 16.829-37.588 37.588-37.588z"/></symbol><symbol viewBox="0 0 410.155 410.155" id="svg--twitter"><path fill="var(--primary-color,#76a9ea)" d="M403.632 74.18a162.414 162.414 0 0 1-28.28 9.537 88.177 88.177 0 0 0 23.275-37.067c1.295-4.051-3.105-7.554-6.763-5.385a163.188 163.188 0 0 1-43.235 17.862 11.02 11.02 0 0 1-2.702.336c-2.766 0-5.455-1.027-7.57-2.891-16.156-14.239-36.935-22.081-58.508-22.081-9.335 0-18.76 1.455-28.014 4.325-28.672 8.893-50.795 32.544-57.736 61.724-2.604 10.945-3.309 21.9-2.097 32.56a3.166 3.166 0 0 1-.797 2.481 3.278 3.278 0 0 1-2.753 1.091c-62.762-5.831-119.358-36.068-159.363-85.14-2.04-2.503-5.952-2.196-7.578.593-7.834 13.44-11.974 28.812-11.974 44.454 0 23.972 9.631 46.563 26.36 63.032a79.24 79.24 0 0 1-20.169-7.808c-3.06-1.7-6.825.485-6.868 3.985-.438 35.612 20.412 67.3 51.646 81.569a79.567 79.567 0 0 1-16.786-1.399c-3.446-.658-6.341 2.611-5.271 5.952 10.138 31.651 37.39 54.981 70.002 60.278-27.066 18.169-58.585 27.753-91.39 27.753l-10.227-.006c-3.151 0-5.816 2.054-6.619 5.106-.791 3.006.666 6.177 3.353 7.74 36.966 21.513 79.131 32.883 121.955 32.883 37.485 0 72.549-7.439 104.219-22.109 29.033-13.449 54.689-32.674 76.255-57.141 20.09-22.792 35.8-49.103 46.692-78.201 10.383-27.737 15.871-57.333 15.871-85.589v-1.346c-.001-4.537 2.051-8.806 5.631-11.712a174.776 174.776 0 0 0 35.16-38.591c2.573-3.849-1.485-8.673-5.719-6.795z"/></symbol><symbol viewBox="0 0 447.674 447.674" id="svg--wordpress"><g fill="var(--primary-color,#00769d)"><path d="M134.289 138.16h-24.722l67.399 190.521 37.732-107.825-29.254-82.696H159.36v-18.154h115.508v18.154h-27.049l67.398 190.521 24.227-69.234c31.781-88.702-26.048-116.333-26.048-136.129s16.048-35.843 35.843-35.843c1.071 0 2.111.058 3.13.153-33.541-31.663-78.768-51.08-128.534-51.08-65.027 0-122.306 33.146-155.884 83.458h66.336v18.154h.002zm-97.741 85.677c0 71.704 40.302 133.986 99.483 165.458l-84.52-238.919c-9.628 22.556-14.963 47.385-14.963 73.461zm350.285-92.29c2.679 15.774 1.868 33.503-2.243 51.301h.745l-2.832 8.092c-1.678 5.843-3.791 11.82-6.191 17.693l-64.444 180.541c59.057-31.51 99.256-93.725 99.256-165.338 0-33.557-8.834-65.048-24.291-92.289z"/><path d="M166.075 402.033c18.195 5.894 37.603 9.091 57.762 9.091 19.228 0 37.777-2.902 55.239-8.285l-54.784-154.862-58.217 154.056z"/><path d="M382.113 65.56C339.836 23.283 283.625 0 223.836 0S107.837 23.283 65.56 65.56 0 164.047 0 223.837c0 59.789 23.283 115.999 65.56 158.276s98.488 65.56 158.277 65.56 115.999-23.283 158.277-65.56c42.277-42.277 65.56-98.488 65.56-158.276-.001-59.79-23.284-116-65.561-158.277zM223.836 431.883c-114.717 0-208.046-93.329-208.046-208.046S109.119 15.79 223.836 15.79s208.046 93.33 208.046 208.047-93.328 208.046-208.046 208.046z"/></g></symbol></svg>