<svg xmlns="http://www.w3.org/2000/svg" xmlns:xlink="http://www.w3.org/1999/xlink"><symbol viewBox="0 0 384.97 384.97" id="svg--menu"><path d="M12.03 120.303h360.909c6.641 0 12.03-5.39 12.03-12.03 0-6.641-5.39-12.03-12.03-12.03H12.03c-6.641 0-12.03 5.39-12.03 12.03s5.39 12.03 12.03 12.03zm360.909 60.152H12.03c-6.641 0-12.03 5.39-12.03 12.03s5.39 12.03 12.03 12.03h360.909c6.641 0 12.03-5.39 12.03-12.03s-5.389-12.03-12.03-12.03zm0 84.212H132.333c-6.641 0-12.03 5.39-12.03 12.03 0 6.641 5.39 12.03 12.03 12.03h240.606c6.641 0 12.03-5.39 12.03-12.03.001-6.641-5.389-12.03-12.03-12.03z"/></symbol><symbol viewBox="0 0 504.123 504.123" id="svg--triangle"><path d="M252.058 498.527a38.27 38.27 0 0 1-34.028-20.779L4.226 61.318a38.253 38.253 0 0 1 1.371-37.4 38.275 38.275 0 0 1 32.65-18.314h427.63c13.32 0 25.695 6.94 32.65 18.314a38.271 38.271 0 0 1 1.371 37.408L286.07 477.755a38.238 38.238 0 0 1-34.012 20.772zM100.876 82.089l151.182 294.463L403.24 82.089H100.876z" fill="var(--primary-color,#1c2833)"/><path d="M331.993 388.321L499.889 61.318a38.27 38.27 0 0 0-1.371-37.408 38.275 38.275 0 0 0-32.65-18.314h-323.41l37.88 76.485h222.909L289.78 303.084l42.213 85.237z" fill="var(--secondary-color,#34515e)"/></symbol></svg>